<svg width="2015" height="1096" viewBox="0 0 2015 1096" fill="none" xmlns="http://www.w3.org/2000/svg">
<g clip-path="url(#clip0_1988_81)">
<path d="M456.164 953.025C455.777 997.095 452.549 1041.09 446.499 1084.75C446.287 1086.28 446.057 1087.81 445.844 1089.35L33.1064 1087.04C31.8945 1085.52 30.7017 1083.98 29.5461 1082.42C25.6927 1077.26 22.0812 1071.95 18.7658 1066.46C2.83056 1040.01 -4.46474 1009.05 2.84586 987.683L2.97677 987.352C4.55485 982.673 7.04157 978.353 10.2941 974.638C26.9622 955.877 60.6633 959.004 91.2463 974.147C63.8153 944.123 41.9731 906.237 40.3135 872.419C38.6863 839.433 55.9354 815.869 74.6441 795.844C75.258 795.182 75.8718 794.538 76.4855 793.895C76.7834 793.564 77.0993 793.251 77.3963 792.92C91.9931 777.659 109.011 762.616 133.642 764.435C160.656 766.435 190.607 789.061 211.608 815.426C232.608 841.774 246.563 871.704 260.709 900.915C274.872 930.108 290.196 960.046 312.923 984.998C282.14 946.064 257.321 901.765 248.152 858.681C238.984 815.598 247.053 774.219 274.488 753.928C282.817 747.958 292.455 744.069 302.595 742.588C303.779 742.391 304.981 742.231 306.202 742.09C331.599 739.201 361.923 747.984 387.722 768.979C416.135 792.096 435.834 826.365 445.635 858.898C455.436 891.43 456.48 922.749 456.164 953.025Z" fill="#CBE055"/>
<path d="M186.128 1087.9L178.236 1087.85C175.73 1086.28 173.212 1084.74 170.682 1083.21C169.117 1082.22 167.532 1081.27 165.947 1080.3C139.768 1064.31 113.426 1048.97 86.9194 1034.29C60.4372 1019.6 33.8219 1005.58 7.07333 992.235C6.3643 991.927 5.78585 991.379 5.43847 990.689C5.0911 989.998 4.99675 989.207 5.17186 988.454C5.20051 988.355 5.24494 988.262 5.30339 988.177C5.67648 987.477 6.51032 987.186 7.72731 987.784C11.0082 989.429 14.308 991.074 17.5887 992.756C44.4103 1006.33 71.1168 1020.57 97.7081 1035.5C124.281 1050.41 150.703 1065.99 176.973 1082.23C177.525 1082.56 178.078 1082.92 178.631 1083.25C181.136 1084.8 183.623 1086.35 186.128 1087.9Z" fill="white"/>
<path d="M287.888 1088.46L283.007 1088.44C281.906 1086.9 280.825 1085.36 279.724 1083.82C253.862 1047.55 228.006 1011.29 202.155 975.025C159.822 915.656 117.501 856.287 75.1924 796.919C74.9416 796.599 74.7551 796.234 74.6433 795.843C74.2815 794.529 75.2471 793.758 76.4847 793.894C77.0065 793.969 77.5064 794.154 77.951 794.437C78.3957 794.72 78.7749 795.094 79.0634 795.536C102.798 828.83 126.526 862.111 150.249 895.381C192.362 954.453 234.47 1013.52 276.571 1072.58C279.249 1076.33 281.927 1080.09 284.605 1083.84C285.705 1085.38 286.806 1086.92 287.888 1088.46Z" fill="white"/>
<path d="M396.612 1060.12C396.363 1068.35 395.819 1076.44 395.108 1084.46C394.97 1085.99 394.832 1087.53 394.694 1089.06L389.573 1089.03C389.73 1087.5 389.887 1085.96 390.024 1084.43C391.106 1072.85 391.874 1061.13 391.978 1049.1C392.114 1015.74 388.863 982.449 382.274 949.745C375.27 914.531 365.214 879.994 352.219 846.524C338.58 811.225 322.137 777.074 303.045 744.399C302.686 743.866 302.526 743.224 302.593 742.585C302.805 741.126 304.748 740.693 306.2 742.088C306.487 742.361 306.734 742.674 306.934 743.016C309.296 747.077 311.615 751.151 313.891 755.236C332.278 788.092 348.017 822.362 360.956 857.72C373.282 891.299 382.657 925.888 388.976 961.095C394.895 993.757 397.454 1026.94 396.612 1060.12Z" fill="white"/>
<path d="M1826.4 848.918C1826.4 829.124 1751.9 813.078 1659.99 813.078C1568.09 813.078 1493.58 829.124 1493.58 848.918C1493.58 861.604 1524.21 872.742 1570.39 879.111V1075.48C1570.39 1079.89 1572.14 1084.12 1575.26 1087.24C1578.38 1090.36 1582.61 1092.12 1587.03 1092.12C1591.44 1092.12 1595.67 1090.36 1598.79 1087.24C1601.91 1084.12 1603.67 1079.89 1603.67 1075.48V882.648C1621.26 884.011 1640.22 884.758 1659.99 884.758C1679.76 884.758 1698.72 884.011 1716.31 882.648V1075.48C1716.31 1079.89 1718.07 1084.12 1721.19 1087.24C1724.31 1090.36 1728.54 1092.12 1732.96 1092.12C1737.37 1092.12 1741.6 1090.36 1744.72 1087.24C1747.84 1084.12 1749.6 1079.89 1749.6 1075.48V879.111C1795.77 872.742 1826.4 861.604 1826.4 848.918Z" fill="#ABABAB"/>
<path d="M1678.39 520.875C1717.98 520.875 1750.07 488.783 1750.07 449.195C1750.07 409.608 1717.98 377.516 1678.39 377.516C1638.8 377.516 1606.71 409.608 1606.71 449.195C1606.71 488.783 1638.8 520.875 1678.39 520.875Z" fill="#2F2E41"/>
<path d="M1500 1062.48H1468.61L1453.68 941.426H1500L1500 1062.48Z" fill="#A0616A"/>
<path d="M1446.19 1053.51H1506.72V1091.62H1408.08C1408.08 1086.62 1409.06 1081.66 1410.98 1077.04C1412.89 1072.41 1415.7 1068.21 1419.24 1064.67C1422.78 1061.14 1426.98 1058.33 1431.61 1056.41C1436.23 1054.5 1441.19 1053.51 1446.19 1053.51Z" fill="#2F2E41"/>
<path d="M1451 1044.97L1421.05 1035.57L1443.05 915.594L1487.25 929.461L1451 1044.97Z" fill="#A0616A"/>
<path d="M1402.35 1020.3L1460.11 1038.42L1448.7 1074.78L1354.58 1045.25C1356.08 1040.47 1358.5 1036.04 1361.71 1032.2C1364.92 1028.36 1368.86 1025.2 1373.3 1022.88C1377.73 1020.56 1382.58 1019.14 1387.57 1018.7C1392.55 1018.26 1397.58 1018.8 1402.35 1020.3Z" fill="#2F2E41"/>
<path d="M1461.22 996.662C1459.84 996.662 1458.48 996.414 1457.19 995.93L1434.1 987.272C1431.51 986.291 1429.36 984.411 1428.03 981.976C1426.71 979.54 1426.31 976.71 1426.9 974.002C1432.71 947.865 1452.52 858.878 1463.37 811.148C1476.24 754.534 1663.94 744.014 1671.92 743.594L1672.58 743.559L1693.7 770.091C1701.33 794.613 1698.91 813.741 1686.51 826.943C1650.33 865.463 1542.3 841.561 1529.42 838.535L1472 989.245C1471.17 991.427 1469.69 993.304 1467.76 994.628C1465.84 995.953 1463.55 996.662 1461.22 996.662Z" fill="#2F2E41"/>
<path d="M1494.5 1014.58C1493.12 1014.58 1491.76 1014.34 1490.47 1013.85L1467.38 1005.19C1464.79 1004.21 1462.64 1002.33 1461.31 999.898C1459.99 997.462 1459.59 994.632 1460.18 991.924C1465.99 965.787 1485.8 876.8 1496.65 829.07C1509.52 772.455 1697.22 761.935 1705.21 761.515L1705.86 761.48L1726.98 788.013C1734.61 812.535 1732.19 831.663 1719.79 844.865C1683.61 883.382 1575.58 859.482 1562.7 856.457L1505.28 1007.17C1504.45 1009.35 1502.97 1011.23 1501.04 1012.55C1499.12 1013.87 1496.84 1014.58 1494.5 1014.58Z" fill="#2F2E41"/>
<path d="M1427.69 645.896C1428.54 647.03 1429.3 648.23 1429.96 649.484L1556.22 662.786L1574.4 637.867L1615.59 660.381L1579.89 720.851L1425.04 681.37C1421.13 685.178 1416.16 687.708 1410.78 688.621C1405.4 689.534 1399.87 688.788 1394.92 686.482C1389.98 684.176 1385.85 680.419 1383.1 675.711C1380.34 671.003 1379.08 665.568 1379.49 660.127C1379.89 654.686 1381.95 649.498 1385.37 645.253C1388.8 641.007 1393.44 637.906 1398.67 636.361C1403.91 634.816 1409.49 634.901 1414.67 636.604C1419.85 638.308 1424.4 641.548 1427.69 645.896Z" fill="#A0616A"/>
<path d="M1721.11 798.169C1719.29 798.164 1717.49 797.724 1715.87 796.887C1690.62 784.049 1641.45 761.817 1595.86 757.164C1594.3 757.011 1592.79 756.534 1591.43 755.762C1590.06 754.991 1588.87 753.942 1587.94 752.684C1586.98 751.413 1586.3 749.959 1585.93 748.413C1585.57 746.867 1585.52 745.261 1585.8 743.697C1589.92 720.925 1599.35 662.938 1598.14 616.463C1597.78 602.173 1602.3 588.187 1610.94 576.803C1619.59 565.42 1631.85 557.317 1645.71 553.826C1654.06 551.624 1662.53 549.954 1671.09 548.823C1680.92 547.578 1690.91 548.653 1700.26 551.962C1709.6 555.271 1718.04 560.723 1724.9 567.88C1731.76 575.038 1736.85 583.702 1739.75 593.178C1742.66 602.655 1743.31 612.681 1741.65 622.453C1733.51 670.615 1725.32 737.882 1732.44 784.839C1732.77 786.944 1732.51 789.098 1731.69 791.063C1730.86 793.028 1729.51 794.727 1727.79 795.972C1725.85 797.392 1723.52 798.162 1721.11 798.169Z" fill="#6C63FF"/>
<path d="M1600.48 675.669C1598.9 675.667 1597.35 675.342 1595.9 674.714L1563.01 660.477C1560.21 659.26 1558 656.982 1556.88 654.143C1555.76 651.303 1555.8 648.134 1557.01 645.329L1582.44 586.597C1583.97 583.047 1586.19 579.834 1588.97 577.142C1591.75 574.449 1595.03 572.33 1598.62 570.906C1602.22 569.481 1606.06 568.779 1609.93 568.84C1613.79 568.9 1617.61 569.722 1621.16 571.258C1624.71 572.794 1627.92 575.015 1630.61 577.793C1633.3 580.571 1635.42 583.852 1636.84 587.448C1638.27 591.044 1638.97 594.886 1638.9 598.753C1638.84 602.62 1638.02 606.436 1636.48 609.985L1611.05 668.717C1610.16 670.779 1608.68 672.536 1606.8 673.771C1604.92 675.006 1602.72 675.666 1600.48 675.669Z" fill="#6C63FF"/>
<path d="M1675.77 528.842C1710.5 528.842 1738.65 500.691 1738.65 465.966C1738.65 431.24 1710.5 403.09 1675.77 403.09C1641.04 403.09 1612.89 431.24 1612.89 465.966C1612.89 500.691 1641.04 528.842 1675.77 528.842Z" fill="#A0616A"/>
<path d="M1611.76 435.073C1641.54 453.254 1675.12 464.317 1709.88 467.402L1699.54 455.01C1707.07 457.794 1714.99 459.368 1723.01 459.672C1731.03 459.547 1739.42 456.462 1743.97 449.863C1746 446.583 1747.21 442.86 1747.48 439.013C1747.76 435.167 1747.11 431.309 1745.57 427.771C1742.42 420.713 1737.52 414.579 1731.32 409.953C1720.35 401.27 1707.39 395.438 1693.61 392.976C1679.83 390.513 1665.66 391.498 1652.36 395.841C1643.23 398.569 1635.06 403.812 1628.77 410.969C1622.81 418.322 1611.33 424.874 1614.39 433.834L1611.76 435.073Z" fill="#2F2E41"/>
<path d="M1686.34 384.332C1666.51 364.222 1642.51 348.704 1616.03 338.869C1599.04 332.573 1580.54 328.683 1562.77 332.259C1545 335.834 1528.2 348.126 1523.24 365.558C1519.19 379.813 1523.37 395.161 1529.66 408.58C1535.95 421.999 1544.35 434.442 1549.44 448.362C1554.63 462.565 1556.19 477.839 1553.98 492.798C1551.77 507.757 1545.86 521.927 1536.78 534.022C1527.71 546.118 1515.75 555.754 1502.01 562.058C1488.26 568.362 1473.16 571.133 1458.07 570.121C1475.53 572.461 1491.62 580.665 1508.69 585.032C1525.75 589.399 1545.89 589.103 1558.57 576.878C1571.99 563.944 1572.26 542.914 1571.61 524.29C1570.65 496.603 1569.68 468.917 1568.72 441.231C1568.23 427.111 1567.81 412.54 1572.9 399.361C1577.99 386.183 1590.09 374.643 1604.22 374.763C1614.93 374.853 1624.41 381.34 1632.99 387.737C1641.58 394.133 1650.67 400.958 1661.34 401.91C1672 402.861 1684.18 394.968 1683.38 384.291" fill="#2F2E41"/>
<path d="M1570.06 782.015C1565.89 782.01 1561.77 781.081 1558.01 779.295C1554.25 777.509 1550.92 774.911 1548.29 771.687C1545.65 768.463 1543.76 764.694 1542.75 760.651C1541.74 756.608 1541.64 752.392 1542.46 748.307C1543.28 744.222 1545 740.369 1547.48 737.027C1549.97 733.684 1553.17 730.935 1556.85 728.977C1560.52 727.019 1564.59 725.901 1568.75 725.704C1572.91 725.507 1577.07 726.235 1580.92 727.836C1582.07 728.325 1583.2 728.893 1584.27 729.537L1698.82 678.115L1702.03 647.052L1751.41 645.73L1751.08 697.446C1751.02 703.437 1749.03 709.249 1745.4 714.018C1741.78 718.788 1736.71 722.262 1730.96 723.924L1597 762.05C1596.74 762.935 1596.44 763.806 1596.08 764.658C1593.94 769.792 1590.32 774.176 1585.69 777.264C1581.06 780.351 1575.62 782.004 1570.06 782.015Z" fill="#A0616A"/>
<path d="M1747.23 671.082C1745.82 671.792 1744.29 672.208 1742.72 672.301L1706.94 674.501C1703.89 674.684 1700.9 673.651 1698.61 671.629C1696.32 669.606 1694.93 666.758 1694.74 663.71L1690.81 599.832C1690.56 595.969 1691.08 592.097 1692.34 588.435C1693.59 584.774 1695.56 581.396 1698.12 578.494C1700.68 575.592 1703.79 573.224 1707.26 571.525C1710.74 569.825 1714.52 568.828 1718.38 568.591C1722.25 568.353 1726.12 568.879 1729.78 570.14C1733.44 571.4 1736.81 573.369 1739.71 575.935C1742.61 578.501 1744.97 581.613 1746.66 585.093C1748.36 588.573 1749.35 592.353 1749.58 596.216L1753.51 660.094C1753.64 662.338 1753.12 664.573 1752.01 666.525C1750.89 668.477 1749.23 670.061 1747.23 671.082Z" fill="#6C63FF"/>
<path d="M1669.47 788.477H1467.22C1464.85 788.477 1462.57 787.533 1460.89 785.852C1459.21 784.172 1458.26 781.893 1458.26 779.517C1458.26 777.14 1459.21 774.861 1460.89 773.181C1462.57 771.501 1464.85 770.557 1467.22 770.557H1669.47C1671.85 770.557 1674.13 771.501 1675.81 773.181C1677.49 774.861 1678.43 777.14 1678.43 779.517C1678.43 781.893 1677.49 784.172 1675.81 785.852C1674.13 787.533 1671.85 788.477 1669.47 788.477Z" fill="#3F3D56"/>
<path d="M1378.9 771.837V646.398C1378.9 641.986 1380.66 637.757 1383.78 634.637C1386.9 631.517 1391.13 629.763 1395.54 629.758H1623.39C1627.8 629.763 1632.03 631.517 1635.15 634.637C1638.27 637.757 1640.03 641.986 1640.03 646.398V771.837C1640.03 776.249 1638.27 780.478 1635.15 783.598C1632.03 786.717 1627.8 788.472 1623.39 788.477H1395.54C1391.13 788.472 1386.9 786.717 1383.78 783.598C1380.66 780.478 1378.9 776.249 1378.9 771.837Z" fill="#3F3D56"/>
<path d="M1509.47 724.474C1517.95 724.474 1524.83 717.597 1524.83 709.114C1524.83 700.631 1517.95 693.754 1509.47 693.754C1500.98 693.754 1494.11 700.631 1494.11 709.114C1494.11 717.597 1500.98 724.474 1509.47 724.474Z" fill="white"/>
<path d="M708.596 561.501C706.522 558.361 703.784 555.714 700.576 553.746C697.368 551.779 693.767 550.538 690.027 550.113C686.288 549.687 682.501 550.086 678.932 551.283C675.364 552.479 672.101 554.443 669.374 557.037L588.078 515.078L593.132 562.347L669.557 594.944C674.218 599.237 680.291 601.671 686.627 601.784C692.963 601.898 699.12 599.684 703.932 595.562C708.744 591.44 711.877 585.695 712.736 579.418C713.596 573.14 712.123 566.765 708.596 561.501Z" fill="#FFB8B8"/>
<path d="M636.351 580.525C634.88 581.2 633.283 581.558 631.665 581.575C630.047 581.592 628.443 581.269 626.958 580.626L549.738 547.131C523.335 535.682 501.99 515.033 489.672 489.025L449.076 403.339C446.08 399.491 443.873 395.089 442.579 390.386C441.285 385.684 440.932 380.772 441.538 375.933C442.144 371.093 443.698 366.421 446.111 362.182C448.525 357.944 451.75 354.223 455.603 351.232C459.455 348.241 463.86 346.038 468.564 344.75C473.269 343.463 478.181 343.115 483.02 343.727C487.859 344.339 492.53 345.899 496.766 348.317C501.002 350.736 504.719 353.965 507.706 357.821L579.064 490.207L644.953 539.977C646.839 541.409 648.24 543.384 648.967 545.637C649.693 547.891 649.71 550.313 649.015 552.576L642.548 573.463C641.854 575.703 640.493 577.678 638.647 579.125C637.94 579.68 637.169 580.151 636.351 580.525Z" fill="#CBE055"/>
<path d="M447.29 302.568C482.017 302.568 510.169 274.418 510.169 239.692C510.169 204.967 482.017 176.816 447.29 176.816C412.562 176.816 384.41 204.967 384.41 239.692C384.41 274.418 412.562 302.568 447.29 302.568Z" fill="#FFB8B8"/>
<path d="M472.758 1064.51H504.142L519.076 943.453H472.75L472.758 1064.51Z" fill="#FFB8B8"/>
<path d="M564.676 1093.65L466.032 1093.65L466.03 1055.54L526.562 1055.54C536.67 1055.54 546.364 1059.55 553.512 1066.7C560.659 1073.85 564.675 1083.54 564.676 1093.65Z" fill="#2F2E41"/>
<path d="M370.351 1064.51H401.736L416.669 943.453H370.344L370.351 1064.51Z" fill="#FFB8B8"/>
<path d="M462.27 1093.65L363.626 1093.65L363.624 1055.54L424.155 1055.54C434.263 1055.54 443.958 1059.55 451.105 1066.7C458.253 1073.85 462.269 1083.54 462.27 1093.65Z" fill="#2F2E41"/>
<path d="M359.392 1029.86C358.311 1028.62 357.506 1027.17 357.031 1025.6C356.556 1024.03 356.423 1022.38 356.64 1020.75L411.592 608.629L548.121 631.814L562.692 623.071L525.013 1014.09C524.7 1016.73 523.485 1019.18 521.575 1021.03C519.665 1022.88 517.175 1024.01 514.526 1024.24L473.186 1027.69C471.542 1027.82 469.888 1027.61 468.336 1027.05C466.784 1026.49 465.369 1025.61 464.188 1024.46C463.007 1023.31 462.086 1021.92 461.489 1020.38C460.892 1018.84 460.632 1017.19 460.727 1015.55L471.43 829.327C471.449 829.011 471.35 828.699 471.152 828.452C470.954 828.204 470.671 828.039 470.358 827.988C470.046 827.937 469.725 828.004 469.459 828.175C469.192 828.347 468.999 828.612 468.916 828.917L415.965 1025.27C415.303 1027.71 413.855 1029.87 411.845 1031.41C409.835 1032.95 407.374 1033.79 404.842 1033.79H368.06C366.419 1033.79 364.796 1033.44 363.301 1032.76C361.806 1032.08 360.473 1031.09 359.392 1029.86Z" fill="#2F2E41"/>
<path d="M453.943 637.477C452.376 636.058 450.362 635.233 448.25 635.145C446.138 635.057 444.061 635.711 442.381 636.995L415.086 658.225C413.6 659.383 411.853 660.159 409.998 660.485C408.142 660.811 406.235 660.677 404.444 660.094C402.652 659.511 401.032 658.497 399.723 657.142C398.415 655.786 397.46 654.13 396.941 652.32C383.552 605.432 353.218 487.411 360.691 404.344C364.927 357.259 405.588 321.474 451.332 324.477C482.606 326.562 503.18 344.602 512.484 378.094C535.327 460.326 560.431 611.165 565.231 640.57C565.61 642.851 565.291 645.193 564.314 647.29C563.338 649.386 561.751 651.139 559.761 652.317C546.847 660.07 532.091 664.222 517.028 664.342C498.802 664.342 476.948 657.997 453.943 637.477Z" fill="#CBE055"/>
<path d="M464.244 666.731C464.55 662.98 464.029 659.207 462.719 655.679C461.409 652.151 459.341 648.953 456.662 646.311C453.982 643.668 450.755 641.646 447.209 640.385C443.663 639.124 439.883 638.656 436.137 639.014L398.063 555.832L372.867 596.145L412.886 668.956C413.904 675.209 417.181 680.872 422.096 684.871C427.011 688.871 433.223 690.928 439.553 690.654C445.884 690.379 451.894 687.793 456.445 683.383C460.995 678.974 463.77 673.049 464.244 666.731Z" fill="#FFB8B8"/>
<path d="M395.651 637.116C394.077 636.739 392.6 636.036 391.316 635.051C390.032 634.065 388.969 632.821 388.198 631.399L348.108 557.392C334.398 532.09 330.345 502.67 336.704 474.605L357.642 382.13C357.661 377.254 358.641 372.429 360.526 367.931C362.411 363.434 365.164 359.352 368.628 355.919C372.091 352.486 376.197 349.769 380.712 347.923C385.226 346.078 390.059 345.141 394.936 345.165C399.813 345.188 404.637 346.173 409.133 348.062C413.629 349.952 417.709 352.708 421.139 356.175C424.569 359.642 427.281 363.751 429.122 368.266C430.963 372.782 431.896 377.616 431.867 382.493L406.314 530.697L427.444 610.519C428.045 612.809 427.928 615.228 427.109 617.449C426.29 619.671 424.809 621.587 422.865 622.939L404.885 635.384C402.957 636.718 400.667 637.432 398.322 637.431C397.422 637.432 396.525 637.326 395.651 637.116Z" fill="#CBE055"/>
<path opacity="0.2" d="M426.768 444.996L403.727 542.275L437.008 624.195L413.967 544.835L426.768 444.996Z" fill="black"/>
<path d="M411.406 291.398C405.813 291.502 400.254 290.496 395.052 288.439C392.763 287.557 390.386 286.832 388.102 285.949C367.923 278.154 354.631 256.666 354.155 235.04C353.679 213.415 364.879 192.426 381.509 178.593C398.14 164.761 419.681 157.659 441.25 156.017C464.484 154.248 490.646 160.139 503.629 179.487C507.085 184.637 509.501 190.886 507.454 197.104C506.84 198.981 505.745 200.663 504.277 201.983C498.479 207.141 492.699 203.263 486.788 202.92C478.664 202.449 471.368 209.025 468.745 216.728C466.123 224.431 467.277 232.911 469.394 240.768C471.008 245.495 472.025 250.406 472.422 255.385C472.593 257.882 472.123 260.381 471.057 262.646C469.992 264.911 468.365 266.865 466.332 268.325C461.256 271.394 454.589 269.618 449.51 266.554C444.43 263.491 440.041 259.232 434.555 256.977C429.068 254.723 421.696 255.223 418.503 260.222C417.488 262.04 416.801 264.024 416.474 266.08C413.611 279.123 414.269 278.355 411.406 291.398Z" fill="#2F2E41"/>
<path d="M956.591 504.772C955.548 503.452 954.819 501.912 954.461 500.268C954.103 498.625 954.124 496.921 954.524 495.287C964.072 455.294 964.072 413.616 954.523 373.623C954.124 371.989 954.103 370.286 954.461 368.642C954.819 366.998 955.548 365.458 956.591 364.138C957.612 362.837 958.916 361.786 960.405 361.065C961.893 360.344 963.527 359.971 965.181 359.977H1067.26C1069.87 359.982 1072.39 360.912 1074.38 362.602C1076.36 364.293 1077.68 366.633 1078.11 369.207C1084.77 412.451 1084.77 456.459 1078.11 499.703C1077.68 502.277 1076.36 504.618 1074.38 506.308C1072.39 507.998 1069.87 508.929 1067.26 508.934H965.181C963.527 508.939 961.893 508.567 960.405 507.846C958.916 507.125 957.612 506.073 956.591 504.772Z" fill="#CBE055"/>
<path d="M798.68 144.794C797.637 143.475 796.908 141.935 796.55 140.291C796.192 138.648 796.214 136.944 796.614 135.31C806.162 95.3179 806.162 53.6394 796.614 13.6468C796.214 12.013 796.192 10.3096 796.55 8.66613C796.908 7.0227 797.637 5.48263 798.68 4.16319C799.701 2.86153 801.005 1.80997 802.494 1.08852C803.982 0.367078 805.616 -0.00519235 807.27 5.47054e-05H909.349C911.957 0.0053115 914.479 0.935896 916.466 2.62621C918.452 4.31652 919.774 6.65685 920.197 9.23058C926.855 52.4745 926.855 96.4828 920.197 139.727C919.774 142.3 918.452 144.641 916.466 146.331C914.479 148.021 911.957 148.952 909.349 148.957H807.27C805.616 148.962 803.982 148.59 802.494 147.869C801.005 147.147 799.701 146.096 798.68 144.794Z" fill="#CBE055"/>
<path d="M1049.86 265.211C1043.2 221.967 1043.2 177.959 1049.86 134.715C1050.28 132.141 1051.6 129.801 1053.59 128.11C1055.57 126.42 1058.1 125.489 1060.7 125.484H1162.78C1164.44 125.479 1166.07 125.851 1167.56 126.573C1169.05 127.294 1170.35 128.346 1171.37 129.648C1172.42 130.967 1173.14 132.507 1173.5 134.15C1173.86 135.794 1173.84 137.497 1173.44 139.131C1163.89 179.124 1163.89 220.802 1173.44 260.795C1173.84 262.429 1173.86 264.132 1173.5 265.775C1173.14 267.419 1172.42 268.959 1171.37 270.278C1170.35 271.58 1169.05 272.632 1167.56 273.353C1166.07 274.075 1164.44 274.447 1162.78 274.442H1060.7C1058.1 274.437 1055.57 273.506 1053.59 271.816C1051.6 270.125 1050.28 267.785 1049.86 265.211Z" fill="#6C63FF"/>
<path d="M622.513 260.652C615.855 217.408 615.855 173.4 622.513 130.156C622.935 127.583 624.258 125.242 626.244 123.552C628.23 121.862 630.752 120.931 633.36 120.926H735.44C737.094 120.921 738.728 121.293 740.216 122.014C741.705 122.736 743.009 123.787 744.03 125.089C745.073 126.408 745.801 127.948 746.159 129.592C746.518 131.235 746.496 132.939 746.097 134.573C736.548 174.565 736.548 216.244 746.096 256.236C746.496 257.87 746.517 259.573 746.159 261.217C745.801 262.86 745.073 264.4 744.03 265.72C743.009 267.021 741.705 268.073 740.216 268.795C738.728 269.516 737.094 269.888 735.44 269.883H633.36C630.752 269.878 628.23 268.947 626.244 267.257C624.258 265.566 622.935 263.226 622.513 260.652Z" fill="#FF6584"/>
<path d="M647.759 561.893C646.699 560.552 645.958 558.986 645.594 557.315C645.23 555.645 645.252 553.913 645.658 552.252C655.364 511.603 655.364 469.239 645.657 428.59C645.251 426.929 645.23 425.197 645.594 423.526C645.958 421.856 646.699 420.29 647.759 418.949C648.797 417.626 650.123 416.558 651.636 415.825C653.149 415.092 654.809 414.714 656.49 414.719H760.245C762.897 414.724 765.46 415.67 767.479 417.388C769.498 419.106 770.842 421.485 771.271 424.101C778.039 468.055 778.039 512.787 771.271 556.741C770.842 559.357 769.498 561.736 767.479 563.454C765.46 565.172 762.897 566.118 760.245 566.123H656.49C654.809 566.128 653.149 565.75 651.636 565.017C650.123 564.284 648.797 563.216 647.759 561.893Z" fill="#6C63FF"/>
<path d="M32.2134 1096H2011.95C2012.76 1096 2013.54 1095.68 2014.11 1095.11C2014.68 1094.53 2015 1093.76 2015 1092.95C2015 1092.14 2014.68 1091.37 2014.11 1090.8C2013.54 1090.22 2012.76 1089.9 2011.95 1089.9H32.2134C31.8124 1089.9 31.415 1089.98 31.0442 1090.13C30.6733 1090.28 30.3362 1090.51 30.0522 1090.79C29.7682 1091.08 29.5429 1091.41 29.3892 1091.78C29.2354 1092.15 29.1562 1092.55 29.1562 1092.95C29.1562 1093.35 29.2354 1093.75 29.3892 1094.12C29.5429 1094.49 29.7682 1094.83 30.0522 1095.11C30.3362 1095.39 30.6733 1095.62 31.0442 1095.77C31.415 1095.92 31.8124 1096 32.2134 1096Z" fill="#3F3D56"/>
<path d="M740.224 470.582H685.567C683.531 470.58 681.579 469.77 680.139 468.33C678.699 466.89 677.889 464.938 677.887 462.902V459.641C677.889 457.605 678.699 455.653 680.139 454.213C681.579 452.773 683.531 451.963 685.567 451.961H740.224C742.261 451.963 744.213 452.773 745.653 454.213C747.093 455.653 747.903 457.605 747.905 459.641V462.902C747.903 464.938 747.093 466.89 745.653 468.33C744.213 469.77 742.261 470.58 740.224 470.582Z" fill="white"/>
<path d="M740.224 502.703H685.567C683.531 502.701 681.579 501.891 680.139 500.451C678.699 499.012 677.889 497.059 677.887 495.023V491.762C677.889 489.726 678.699 487.774 680.139 486.334C681.579 484.894 683.531 484.084 685.567 484.082H740.224C742.261 484.084 744.213 484.894 745.653 486.334C747.093 487.774 747.903 489.726 747.905 491.762V495.023C747.903 497.059 747.093 499.012 745.653 500.451C744.213 501.891 742.261 502.701 740.224 502.703Z" fill="white"/>
<path d="M704.025 184.098H650.458C648.421 184.096 646.469 183.286 645.029 181.846C643.589 180.407 642.78 178.454 642.777 176.418V173.418C642.78 171.382 643.589 169.43 645.029 167.99C646.469 166.55 648.421 165.741 650.458 165.738H704.025C706.061 165.741 708.014 166.55 709.454 167.99C710.893 169.43 711.703 171.382 711.706 173.418V176.418C711.703 178.454 710.893 180.407 709.454 181.846C708.014 183.286 706.061 184.096 704.025 184.098Z" fill="white"/>
<path d="M1046.26 409.709H992.696C990.66 409.707 988.707 408.897 987.268 407.457C985.828 406.017 985.018 404.065 985.016 402.029V399.028C985.018 396.991 985.828 395.039 987.268 393.6C988.707 392.16 990.66 391.35 992.696 391.348H1046.26C1048.3 391.35 1050.25 392.16 1051.69 393.6C1053.13 395.039 1053.94 396.991 1053.94 399.028V402.029C1053.94 404.065 1053.13 406.017 1051.69 407.457C1050.25 408.897 1048.3 409.707 1046.26 409.709Z" fill="white"/>
<path d="M1046.26 447.631H992.696C990.66 447.628 988.707 446.819 987.268 445.379C985.828 443.939 985.018 441.987 985.016 439.951V436.949C985.018 434.913 985.828 432.961 987.268 431.521C988.707 430.082 990.66 429.272 992.696 429.27H1046.26C1048.3 429.272 1050.25 430.082 1051.69 431.521C1053.13 432.961 1053.94 434.913 1053.94 436.949V439.951C1053.94 441.987 1053.13 443.939 1051.69 445.379C1050.25 446.819 1048.3 447.628 1046.26 447.631Z" fill="white"/>
<path d="M1046.26 485.553H992.696C990.66 485.55 988.707 484.74 987.268 483.301C985.828 481.861 985.018 479.909 985.016 477.873V474.871C985.018 472.835 985.828 470.883 987.268 469.443C988.707 468.003 990.66 467.194 992.696 467.191H1046.26C1048.3 467.194 1050.25 468.003 1051.69 469.443C1053.13 470.883 1053.94 472.835 1053.94 474.871V477.873C1053.94 479.909 1053.13 481.861 1051.69 483.301C1050.25 484.74 1048.3 485.55 1046.26 485.553Z" fill="white"/>
<path d="M704.025 215.701H650.458C648.421 215.699 646.469 214.889 645.029 213.449C643.589 212.009 642.78 210.057 642.777 208.021V205.02C642.78 202.984 643.589 201.031 645.029 199.592C646.469 198.152 648.421 197.342 650.458 197.34H704.025C706.061 197.342 708.014 198.152 709.454 199.592C710.893 201.031 711.703 202.984 711.706 205.02V208.021C711.703 210.057 710.893 212.009 709.454 213.449C708.014 214.889 706.061 215.699 704.025 215.701Z" fill="white"/>
<path d="M888.81 56.0525H835.243C833.207 56.0503 831.254 55.2405 829.814 53.8007C828.375 52.3609 827.565 50.4088 827.562 48.3726V45.3714C827.565 43.3352 828.375 41.3831 829.814 39.9433C831.254 38.5035 833.207 37.6936 835.243 37.6914H888.81C890.846 37.6936 892.798 38.5035 894.238 39.9433C895.678 41.3831 896.488 43.3352 896.49 45.3714V48.3726C896.488 50.4088 895.678 52.3609 894.238 53.8007C892.798 55.2405 890.846 56.0503 888.81 56.0525Z" fill="white"/>
<path d="M1133.24 191.818H1079.67C1077.63 191.816 1075.68 191.006 1074.24 189.566C1072.8 188.127 1071.99 186.174 1071.99 184.138V181.137C1071.99 179.101 1072.8 177.149 1074.24 175.709C1075.68 174.269 1077.63 173.459 1079.67 173.457H1133.24C1135.27 173.459 1137.22 174.269 1138.66 175.709C1140.1 177.149 1140.91 179.101 1140.92 181.137V184.138C1140.91 186.174 1140.1 188.127 1138.66 189.566C1137.22 191.006 1135.27 191.816 1133.24 191.818Z" fill="white"/>
</g>
<defs>
<clipPath id="clip0_1988_81">
<rect width="2015" height="1096" fill="white"/>
</clipPath>
</defs>
</svg>
