<svg width="969" height="921" viewBox="0 0 969 921" fill="none" xmlns="http://www.w3.org/2000/svg">
<g clip-path="url(#clip0_2019_169)">
<path d="M47.6013 218.662C47.1305 217.969 35.4047 229.776 24.7401 227.347C11.4546 224.32 1.73609 199.635 8.94028 189.077C13.7081 182.09 25.5661 181.762 25.3194 180.451C25.0554 179.049 12.2942 183.749 5.35212 178.135C-3.08128 171.315 -1.31909 150.572 8.99873 139.692C11.0631 137.516 14.4921 133.9 19.4165 133.613C29.0889 133.051 36.6824 145.789 40.0202 151.388C50.6318 169.188 51.5013 187.863 52.8104 187.688C54.0206 187.527 50.8074 171.898 56.6305 168.699C57.9061 167.998 59.4218 168.007 60.9282 168.356C60.5469 167.37 60.2726 166.354 60.134 165.311C59.26 158.729 64.4876 151.732 70.6643 145.867C64.2315 149.679 56.9598 152.322 50.5267 150.431C36.1553 146.207 26.593 119.552 34.1483 103.188C39.4251 91.7597 52.8814 85.7213 52.4374 85.0671C51.9666 84.3734 40.2408 96.181 29.5762 93.7512C16.2907 90.7243 6.57216 66.04 13.7764 55.482C18.5442 48.4947 30.4022 48.1662 30.1555 46.8557C29.8915 45.4535 17.1302 50.154 10.1882 44.5397C1.75479 37.7193 3.51706 16.9768 13.8348 6.09698C15.8992 3.92008 19.3282 0.30435 24.2527 0.0180413C33.925 -0.544479 41.5185 12.1934 44.8563 17.7923C55.4679 35.5925 56.3374 54.2678 57.6465 54.093C58.8567 53.9312 55.6435 38.3031 61.4666 35.1032C65.1128 33.0995 70.7211 36.8373 72.463 37.9981C91.6177 50.7636 86.3095 78.5213 104.005 108.052C109.702 117.561 115.379 123.238 120.169 127.533C122.357 101.093 114.298 80.7958 126.506 65.4217C127.808 63.7822 132 58.5035 136.084 59.2916C142.608 60.5501 144.343 76.4108 145.544 76.1933C146.844 75.958 141.944 57.9164 146.585 37.7178C148.044 31.3647 151.365 16.9106 160.744 14.4777C165.519 13.2389 169.891 15.628 172.524 17.0663C185.68 24.255 193.719 43.4565 187.784 52.5361C182.899 60.0101 169.311 59.4526 169.49 60.8683C169.657 62.1913 181.044 58.8648 187.725 64.052C197.82 71.8899 196.14 98.3664 184.423 105.325C175.018 110.91 160.237 103.27 160.001 104.075C159.779 104.834 174.439 106.452 182.966 115.71C186.506 119.553 188.934 124.664 190.306 130.186C201.919 131.059 211.858 139.383 212.23 138.741C212.651 138.016 196.93 132.568 194.494 121.901C191.458 108.613 209.478 89.148 222.113 91.0629C230.475 92.3302 235.913 102.876 236.987 102.085C238.135 101.239 228.367 91.7753 230.413 83.083C232.899 72.5236 252.348 65.1163 266.622 69.6981C269.479 70.6148 274.223 72.1374 276.616 76.4521C281.317 84.9264 273.137 97.2954 269.541 102.732C258.109 120.017 241.665 128.9 242.39 130.004C243.06 131.024 255.744 121.35 261.152 125.211C264.538 127.629 263.603 134.305 263.313 136.379C260.122 159.18 232.816 166.434 213.89 195.191C198.478 218.608 205.054 231.317 191.997 237.664C186.392 240.389 179.254 240.916 171.959 239.604C177.605 277.422 179.201 342.099 179.201 342.099C180.794 406.793 189.108 460.071 192.748 459.969C194.769 459.907 194.024 443.611 200.146 417.406C204.443 399.033 206.471 399.879 217.627 367.097C235.33 315.095 244.181 289.102 244.199 288.96C244.293 287.83 244.448 285.548 245.095 283.239C231.992 279.572 219.268 270.176 214.848 256.99C211.312 246.441 212.241 230.771 220.842 225.126C226.392 221.484 234.961 223.162 242.923 226.185C236.699 222.04 231.165 216.632 230.078 210.014C227.65 195.228 247.514 175.049 265.53 174.762C278.113 174.562 289.388 184.073 289.784 183.389C290.205 182.663 274.484 177.215 272.048 166.548C269.013 153.261 287.032 133.795 299.667 135.71C308.029 136.978 313.467 147.523 314.54 146.733C315.689 145.887 305.921 136.423 307.967 127.73C310.453 117.171 329.902 109.764 344.176 114.346C347.033 115.262 351.777 116.785 354.17 121.099C358.872 129.574 350.691 141.943 347.095 147.379C335.664 164.664 319.219 173.547 319.944 174.651C320.614 175.672 333.298 165.998 338.706 169.859C342.092 172.276 341.157 178.953 340.867 181.026C337.676 203.828 310.37 211.081 291.444 239.838C276.032 263.255 282.608 275.965 269.551 282.312C267.292 283.41 264.779 284.142 262.112 284.551L262.111 284.564C260.962 302.443 228.763 350.493 210.842 418.81C201.915 452.846 197.031 471.414 200.547 497.271C204.019 522.904 213.663 540.206 213.488 551.628C213.474 552.697 213.381 553.682 213.184 554.636L160.258 547.687C159.903 546.661 159.624 545.608 159.404 544.527C155.373 525.079 170.077 495.52 162.605 447.848C157.056 412.474 141.852 383.377 134.764 369.822C126.053 353.151 115.763 337.47 104.651 313.12C97.5164 317.051 89.427 319.137 81.3998 318.128C70.3646 316.74 56.6525 309.107 55.2978 298.906C54.4239 292.324 59.6513 285.327 65.8281 279.462C59.3952 283.274 52.1237 285.918 45.6906 284.027C31.3191 279.803 21.7568 253.147 29.3122 236.784C34.589 225.355 48.0453 219.317 47.6013 218.662ZM262.923 236.093C262.961 236.017 262.409 235.776 261.446 235.385C262.353 235.895 262.884 236.17 262.923 236.093ZM86.9842 133.16C87.8365 132.564 88.3145 132.205 88.2622 132.137C88.2101 132.068 87.7537 132.462 86.9842 133.16ZM141.87 160.452C140.924 160.023 140.368 159.788 140.34 159.869C140.311 159.95 140.876 160.145 141.87 160.452ZM185.368 191.446C185.407 191.369 184.855 191.129 183.892 190.738C184.799 191.247 185.33 191.523 185.368 191.446ZM170.143 328.212C171.414 327.925 155.957 265.387 153.422 232.185C146.087 227.375 140.062 220.601 137.294 212.343C137.246 212.199 137.202 212.051 137.155 211.906C135.688 211.702 134.229 211.426 132.784 211.085C137.956 224.168 140.842 233.669 140.842 233.669C154.273 277.932 168.984 328.477 170.143 328.212ZM112.457 307.795C116.699 314.302 121.669 322.301 128.514 334.537C146.07 365.883 154.84 381.546 157.147 392.714C157.753 395.696 160.949 411.824 168.276 432.268C172.021 442.699 173.893 447.915 175.318 447.703C179.351 447.09 179.419 405.941 168.255 363.336C166.341 356.083 164.816 351.402 161.915 342.55C157.209 328.11 130.985 247.847 110.356 199.155L110.353 199.149C106.543 195.496 103.693 191.317 102.294 186.919C101.847 185.514 101.596 184.215 101.496 182.979C96.5622 184.548 91.3866 185.18 86.236 184.532C83.3554 184.17 80.2932 183.379 77.3153 182.231C85.5534 196.834 85.4204 218.704 99.1687 241.648C113.578 265.695 127.878 265.279 127.933 279.801C127.969 289.446 121.693 300.114 112.451 307.786L112.457 307.795ZM83.4262 265.732C83.374 265.664 82.9176 266.058 82.148 266.756C83.0003 266.159 83.4784 265.8 83.4262 265.732Z" fill="#CBE055"/>
<path d="M636.892 203.199C628.812 201.852 620.018 211.725 616.345 215.848C606.539 226.857 604.492 239.664 603.701 245.099C591.206 330.881 584.959 373.772 610.813 393.722C635.384 412.682 680.297 407.597 689.051 390.56C692.461 383.923 689.61 376.98 685.1 363.681C676.764 339.102 671.85 313.486 664.552 288.579C647.888 231.708 649.287 205.266 636.892 203.199Z" fill="#2F2E41"/>
<path d="M857.379 523.371L896.703 597.616C906.741 616.568 954.241 908.52 933.117 912.199L841.619 915.236L803.655 917.228L764.633 917.79L667.908 921L722.241 540.763L857.379 523.371Z" fill="#2F2E41"/>
<path d="M760.57 305.574L682.332 308.736L676.01 334.825L657.169 350.2C650.241 355.853 646.843 364.766 648.248 373.598L657.043 428.9C657.043 428.9 640.447 468.428 682.332 493.725L724.217 561.713L869.629 546.692C869.629 546.692 883.064 545.111 873.581 535.624C864.097 526.138 852.243 479.495 852.243 479.495C852.243 479.495 853.823 458.941 848.291 453.407C842.759 447.873 846.611 433.643 846.611 433.643L824.11 350.439C819.725 334.226 805.02 322.966 788.229 322.966H763.277L760.57 305.574Z" fill="#7F22FE"/>
<path d="M158.708 837.586L841.988 654.911C856.587 651.007 866.759 639.259 868.536 624.249C870.314 609.238 863.166 595.437 849.884 588.23L572.202 437.582C565.185 433.773 556.98 432.39 549.103 433.692L90.1326 509.38C80.3345 510.996 71.8436 516.397 66.2237 524.587C60.6038 532.777 58.619 542.644 60.6338 552.372L114.005 810.005C116.042 819.84 121.87 828.158 130.415 833.431C136.208 837.005 142.691 838.833 149.289 838.833C152.423 838.833 155.584 838.421 158.708 837.586Z" fill="white"/>
<path d="M158.708 837.586L841.988 654.911C856.587 651.007 866.759 639.259 868.536 624.249C870.314 609.238 863.166 595.437 849.884 588.23L572.202 437.582C565.185 433.773 556.98 432.39 549.103 433.692L90.1326 509.38C80.3345 510.996 71.8436 516.397 66.2237 524.587C60.6038 532.777 58.619 542.644 60.6338 552.372L114.005 810.005C116.042 819.84 121.87 828.158 130.415 833.431C136.208 837.005 142.691 838.833 149.289 838.833C152.423 838.833 155.584 838.421 158.708 837.586ZM90.7464 513.103L549.717 437.414C556.772 436.248 564.119 437.487 570.405 440.897L848.086 591.545C859.982 597.999 866.384 610.36 864.792 623.804C863.2 637.248 854.089 647.771 841.015 651.267L157.735 833.942C149.048 836.262 140.048 834.942 132.395 830.22C124.741 825.499 119.522 818.047 117.697 809.239L64.326 551.605C62.5216 542.895 64.2996 534.057 69.3328 526.721C74.366 519.386 81.9707 514.549 90.7464 513.103Z" fill="#BBBBBB"/>
<path d="M190.014 584.026L250.948 737.839C256.856 752.751 273.44 760.381 288.603 755.162L736.486 601.007C761.216 592.495 763.979 558.612 740.954 546.204L596.818 468.524C590.546 465.145 583.278 464.107 576.312 465.597L211.631 543.619C193.484 547.502 183.176 566.768 190.014 584.026Z" fill="#E7E7E7"/>
<path d="M307.344 609.54C293.377 609.54 282.055 603.877 282.055 596.891C282.055 589.905 293.377 584.242 307.344 584.242C321.311 584.242 332.633 589.905 332.633 596.891C332.633 603.877 321.311 609.54 307.344 609.54Z" fill="#2B7FFF"/>
<path d="M331.051 648.278C317.084 648.278 305.762 642.615 305.762 635.629C305.762 628.644 317.084 622.98 331.051 622.98C345.018 622.98 356.34 628.644 356.34 635.629C356.34 642.615 345.018 648.278 331.051 648.278Z" fill="#3F3D56"/>
<path d="M466.98 617.84C429.007 617.84 398.225 602.444 398.225 583.451C398.225 564.459 429.007 549.062 466.98 549.062C504.952 549.062 535.734 564.459 535.734 583.451C535.734 602.444 504.952 617.84 466.98 617.84Z" fill="#4A92FE"/>
<path d="M586.313 581.872C585.338 581.872 584.423 581.264 584.078 580.291C583.641 579.057 584.287 577.701 585.521 577.264L635.692 559.476C636.923 559.04 638.281 559.685 638.719 560.92C639.156 562.154 638.51 563.51 637.276 563.948L587.105 581.735C586.843 581.828 586.576 581.872 586.313 581.872Z" fill="#3F3D56"/>
<path d="M575.251 573.176C574.275 573.176 573.361 572.569 573.016 571.596C572.579 570.362 573.225 569.006 574.459 568.568L624.63 550.781C625.861 550.345 627.218 550.989 627.656 552.225C628.093 553.459 627.447 554.815 626.213 555.252L576.043 573.04C575.781 573.132 575.514 573.176 575.251 573.176Z" fill="#3F3D56"/>
<path d="M564.184 564.481C563.209 564.481 562.294 563.873 561.949 562.901C561.512 561.666 562.158 560.31 563.392 559.873L613.563 542.085C614.795 541.65 616.152 542.294 616.59 543.529C617.027 544.763 616.381 546.119 615.147 546.557L564.976 564.344C564.715 564.437 564.447 564.481 564.184 564.481Z" fill="#3F3D56"/>
<path d="M553.122 555.782C552.146 555.782 551.232 555.174 550.887 554.202C550.45 552.967 551.096 551.612 552.33 551.174L602.501 533.386C603.732 532.95 605.09 533.595 605.528 534.83C605.964 536.065 605.318 537.42 604.084 537.858L553.914 555.645C553.652 555.738 553.385 555.782 553.122 555.782Z" fill="#3F3D56"/>
<path d="M542.055 547.087C541.08 547.087 540.165 546.479 539.82 545.506C539.384 544.272 540.03 542.916 541.264 542.478L591.434 524.691C592.665 524.255 594.023 524.899 594.461 526.135C594.898 527.369 594.252 528.725 593.018 529.163L542.847 546.95C542.586 547.043 542.319 547.087 542.055 547.087Z" fill="#3F3D56"/>
<path d="M530.993 538.391C530.017 538.391 529.103 537.783 528.758 536.811C528.321 535.576 528.967 534.221 530.201 533.783L580.372 515.995C581.604 515.56 582.96 516.204 583.399 517.439C583.835 518.674 583.189 520.029 581.955 520.467L531.785 538.254C531.523 538.347 531.256 538.391 530.993 538.391Z" fill="#3F3D56"/>
<path d="M519.93 529.696C518.955 529.696 518.04 529.088 517.695 528.116C517.259 526.881 517.905 525.526 519.139 525.088L569.309 507.3C570.541 506.864 571.898 507.509 572.336 508.744C572.773 509.979 572.127 511.334 570.893 511.772L520.722 529.559C520.461 529.652 520.194 529.696 519.93 529.696Z" fill="#3F3D56"/>
<path d="M689.048 331.268C653.258 331.268 624.245 302.244 624.245 266.442C624.245 230.64 653.258 201.617 689.048 201.617C724.838 201.617 753.852 230.64 753.852 266.442C753.852 302.244 724.838 331.268 689.048 331.268Z" fill="#A0616A"/>
<path d="M675.614 169.995C693.859 167.02 703.657 165.422 713.547 167.623C733.361 172.033 744.853 189.752 753.062 202.407C772.691 232.672 763.816 245.391 783.092 287.787C796.92 318.2 803.892 316.943 805.22 332.848C808.009 366.235 779.618 399.633 749.11 412.694C747.073 413.566 715.368 426.838 706.435 415.856C699.886 407.806 711.455 393.949 725.402 356.565C749.926 290.83 738.338 268.861 734.885 263.28C732.704 259.754 726.482 250.99 723.031 252.212C719.908 253.318 722.611 261.339 719.87 268.023C712.525 285.932 667.88 289.908 632.939 275.929C622.634 271.806 616.311 269.276 611.601 262.489C595.617 239.461 614.699 191.201 644.793 177.11C651.639 173.904 659.631 172.601 675.614 169.995Z" fill="#2F2E41"/>
<path d="M721.947 556.222C706.187 564.219 697.536 578.836 702.625 588.869C707.714 598.902 724.614 600.55 740.38 592.548C746.721 589.438 752.226 584.854 756.433 579.18L822.785 544.453L805.831 513.652L742.219 551.157C735.155 551.202 728.203 552.938 721.947 556.222Z" fill="#A0616A"/>
<path d="M411.623 511.54C395.021 517.598 384.688 531.077 388.543 541.646C392.398 552.215 408.981 555.87 425.588 549.808C432.256 547.477 438.268 543.584 443.123 538.452L513.145 511.898L499.987 479.293L432.355 508.933C425.335 508.133 418.227 509.027 411.623 511.54Z" fill="#A0616A"/>
<path d="M797.319 339.171C797.319 339.171 810.754 311.502 841.575 332.847C872.396 354.192 945.892 442.733 945.892 442.733C945.892 442.733 983.826 475.937 962.488 487.795C941.151 499.653 787.836 568.431 787.836 568.431L749.112 541.552L886.621 471.193L807.633 411.902L797.319 339.171Z" fill="#7F22FE"/>
<path d="M662.97 355.774C662.97 355.774 653.567 342.334 636.931 355.774C620.295 369.213 572.414 446.597 572.414 446.597L454.335 494.911L471.721 530.486L613.182 479.89L674.824 396.092L662.97 355.774Z" fill="#7F22FE"/>
<path d="M670.48 331.662C688.402 340.817 680.156 354.872 680.754 357.751C686.578 385.776 665.286 414.805 657.045 413.089C652.211 412.082 649.669 400.036 650.723 390.954C652.089 379.179 640.769 360.541 642.03 352.217C645.123 331.794 626.462 331.412 630.176 323.757C632.352 319.271 659.8 326.207 670.48 331.662Z" fill="#2F2E41"/>
<path d="M462.734 619.661C462.659 619.661 462.585 619.658 462.51 619.648C461.476 619.526 460.737 618.588 460.859 617.553L465.109 581.651C465.168 581.154 465.422 580.701 465.816 580.392C466.21 580.082 466.708 579.943 467.207 580.001L534.715 588.122C535.748 588.246 536.486 589.186 536.361 590.219C536.237 591.254 535.297 591.997 534.264 591.867L468.632 583.972L464.604 617.997C464.49 618.956 463.676 619.661 462.734 619.661Z" fill="white"/>
<path d="M810.357 654.337C790.92 654.337 775.164 638.575 775.164 619.131C775.164 599.688 790.92 583.926 810.357 583.926C829.794 583.926 845.551 599.688 845.551 619.131C845.551 638.575 829.794 654.337 810.357 654.337Z" fill="#CBE055"/>
<path d="M826.347 613.64L815.036 633.54C814.363 634.724 812.43 634.81 811.78 633.54C807.362 624.91 801.122 617.269 793.431 611.348C792.618 610.723 792.205 609.733 792.755 608.768C793.209 607.969 794.529 607.471 795.334 608.091C803.549 614.415 810.305 622.395 815.036 631.636H811.78L823.091 611.736C824.291 609.626 827.55 611.524 826.347 613.64Z" fill="white"/>
</g>
<defs>
<clipPath id="clip0_2019_169">
<rect width="969" height="921" fill="white" transform="matrix(-1 0 0 1 969 0)"/>
</clipPath>
</defs>
</svg>
